<?xml version="1.0" encoding="utf-8"?>
<svg xmlns="http://www.w3.org/2000/svg" viewBox="0 0 500 500">
  <rect style="" width="320" height="50" rx="8" ry="8" id="object-0"/>
  <rect style="" y="450" width="320" height="50" rx="8" ry="8" id="object-4"/>
  <path d="M 6.777 216.957 C 2.938 216.957 -0.173 220.538 -0.173 224.956 L -0.173 274.957 C -0.173 279.375 2.939 282.957 6.778 282.957 L 403.54 282.957 L 350.684 340.785 C 347.969 343.909 347.969 348.975 350.684 352.099 L 379.72 377.212 C 382.433 380.336 386.836 380.336 389.55 377.212 L 471.104 287.054 C 471.255 286.907 471.402 286.752 471.543 286.589 L 498.578 255.476 C 499.951 253.896 500.63 251.818 500.614 249.747 C 500.608 247.71 499.928 245.676 498.578 244.122 L 471.543 213.009 C 471.402 212.846 471.255 212.691 471.104 212.544 L 389.55 122.386 C 386.835 119.262 382.434 119.262 379.72 122.386 L 350.684 147.499 C 347.969 150.623 347.969 155.688 350.684 158.813 L 403.814 216.957 L 6.777 216.957 Z" style="stroke-width: 1; transform-origin: 250.221px 249.799px;" id="object-3"/>
</svg>